<?xml version="1.0" encoding="UTF-8"?>
<svg version="1.1" viewBox="0 0 2000 2000" width="500" height="500" xmlns="http://www.w3.org/2000/svg">
<path transform="translate(0)" d="m0 0h2e3v2e3h-2e3z" fill="#FEFEFE"/>
<path transform="translate(995,600)" d="m0 0 26 1 33 3 29 5 35 9 27 9 23 10 22 11 20 12 20 13 16 12 13 11 14 12 23 23 8 10 11 13 14 19 12 19 12 21 8 16 10 22 9 25 8 27 5 25 3 18 3 33 1 22-2 32-3 27-5 27-7 27-9 27-11 26-8 16-8 15-11 18-11 16-11 14-13 16-10 11-7 8-8 8-8 7-12 11-14 11-15 11-19 12-21 12-17 9-24 10-33 11-31 8-30 5-37 3h-31l-43-4-28-5-30-8-30-10-23-10-20-10-25-15-21-14-14-11-10-9-8-7-10-9-17-17-9-11-10-12-12-16-9-13-18-30-11-23-9-21-7-19-8-28-5-24-4-27-3-34v-22l3-36 4-28 6-27 9-30 8-21 12-26 11-21 10-16 10-15 14-18 9-11 12-14 23-23 8-7 14-12 18-13 15-10 22-13 23-12 26-11 28-9 36-9 24-4 33-3z" fill="#FEFEFE"/>
<path transform="translate(995,600)" d="m0 0 26 1 33 3 29 5 35 9 27 9 23 10 22 11 20 12 20 13 16 12 13 11 14 12 23 23 8 10 11 13 14 19 12 19 12 21 8 16 10 22 9 25 8 27 5 25 3 18 3 33 1 22-2 32-3 27-5 27-7 27-9 27-11 26-8 16-8 15-11 18-11 16-11 14-13 16-10 11-7 8-8 8-8 7-12 11-14 11-15 11-19 12-21 12-17 9-24 10-33 11-31 8-30 5-37 3h-31l-43-4-28-5-30-8-30-10-23-10-20-10-25-15-21-14-14-11-10-9-8-7-10-9-17-17-9-11-10-12-12-16-9-13-18-30-11-23-9-21-7-19-8-28-5-24-4-27-3-34v-22l3-36 4-28 6-27 9-30 8-21 12-26 11-21 10-16 10-15 14-18 9-11 12-14 23-23 8-7 14-12 18-13 15-10 22-13 23-12 26-11 28-9 36-9 24-4 33-3zm-15 110-24 2-26 5-27 8-25 10-20 10-20 13-21 16-14 12-18 18-7 8-10 12-13 18-9 15-12 23-8 20-8 25-4 17-4 29-1 20v17l2 27 5 31 7 26 10 26 11 22 13 21 13 17 11 13 12 13 15 14 11 9 18 14 14 9 16 9 19 9 27 10 23 6 33 5 36 1 25-1 28-4 22-5 31-11 24-11 22-13 19-14 10-8 13-12 6-5v-2l4-2 7-8 12-13 10-14 9-13 13-22 11-24 9-27 6-26 4-30v-50l-3-24-5-24-7-24-9-22-8-17-12-20-10-14-11-14-9-10-7-8-13-13-8-7-18-14-16-11-15-9-15-8-25-10-19-6-26-6-20-3-17-1z" fill="#FEFEFE"/>
<path transform="translate(991,800)" d="m0 0h19l20 2 23 5 18 6 20 9 13 7 13 9 10 8 12 11 13 13 15 20 12 22 8 18 6 20 4 19 2 15v35l-3 20-6 23-8 21-10 19-11 16-9 11-14 15-8 7-13 11-14 9-21 11-24 9-24 6-15 2h-39l-20-3-23-6-24-10-19-10-14-10-15-13-18-18-13-17-12-20-9-20-6-19-4-17-3-23v-27l2-18 4-19 8-24 9-19 11-18 9-12 9-10 7-8h2v-2l8-7 13-11 17-11 15-8 20-8 19-6 24-4z" fill="#FEFEFE"/>
<path transform="translate(995,600)" d="m0 0 26 1 33 3 29 5 35 9 27 9 23 10 22 11 20 12 20 13 16 12 13 11 14 12 23 23 8 10 11 13 14 19 12 19 12 21 8 16 10 22 9 25 8 27 5 25 3 18 3 33 1 22-2 32-3 27-5 27-7 27-9 27-11 26-8 16-8 15-11 18-11 16-11 14-13 16-10 11-7 8-8 8-8 7-12 11-14 11-15 11-19 12-21 12-17 9-24 10-33 11-31 8-30 5-37 3h-31l-43-4-28-5-30-8-30-10-23-10-20-10-25-15-21-14-14-11-10-9-8-7-10-9-17-17-9-11-10-12-12-16-9-13-18-30-11-23-9-21-7-19-8-28-5-24-4-27-3-34v-22l3-36 4-28 6-27 9-30 8-21 12-26 11-21 10-16 10-15 14-18 9-11 12-14 23-23 8-7 14-12 18-13 15-10 22-13 23-12 26-11 28-9 36-9 24-4 33-3zm-11 16-26 2-27 4-24 5-25 7-23 8-19 8-27 13-24 15-18 13-17 13-24 22-12 12-7 8-3 3v2h-2l-10 13-14 19-13 21-9 16-12 25-6 15-10 28-8 31-5 30-2 19-1 16v35l2 27 5 30 9 36 10 28 10 23 12 24 13 21 12 17 12 16 11 13 11 12 8 9 8 7 9 9 14 11 13 10 14 10 25 15 16 8 19 9 39 14 32 8 38 6 34 2h16l31-2 35-5 27-6 20-6 29-11 24-11 17-9 23-14 30-23 14-12 7-7 8-7 18-20 11-14 14-19 10-15 13-22 14-29 13-35 7-25 5-23 4-26 2-33v-22l-2-30-5-32-6-26-7-23-11-29-14-30-10-17-14-22-14-18-8-10-14-15-7-8-15-14-8-7-15-12-14-10-16-11-20-12-29-14-21-8-27-9-24-6-34-6-34-3z" fill="#040404"/>
<path transform="translate(991,800)" d="m0 0h19l20 2 23 5 18 6 20 9 13 7 13 9 10 8 12 11 13 13 15 20 12 22 8 18 6 20 4 19 2 15v35l-3 20-6 23-8 21-10 19-11 16-9 11-14 15-8 7-13 11-14 9-21 11-24 9-24 6-15 2h-39l-20-3-23-6-24-10-19-10-14-10-15-13-18-18-13-17-12-20-9-20-6-19-4-17-3-23v-27l2-18 4-19 8-24 9-19 11-18 9-12 9-10 7-8h2v-2l8-7 13-11 17-11 15-8 20-8 19-6 24-4zm-7 23-24 4-21 6-19 8-16 9-14 10-12 11-13 13-12 16-9 15-9 19-7 21-4 22-1 12v20l2 18 4 19 5 16 6 15 9 16 7 10 11 14 12 12 10 9 14 10 15 9 16 8 18 6 26 5 9 1h26l25-4 19-5 19-8 14-8 15-10 9-7 12-11 11-12 11-15 9-15 8-18 7-22 4-24v-33l-3-20-5-20-8-20-10-19-12-17-11-12-15-15-15-11-16-9-20-9-21-6-24-4z" fill="#FEFEFE"/>
<path transform="translate(980,700)" d="m0 0h38l24 2 24 4 20 5 20 7 29 13 17 9 15 10 19 14 14 12 14 13 7 8 11 12 13 17 9 13 9 15 10 19 10 25 5 15 7 30 3 22 1 12v45l-2 21-4 23-7 27-8 22-8 18-10 18-11 17-16 21-14 15-9 10-13 12-13 11-19 14-18 11-15 8-21 9-28 10-22 5-29 4-29 2-27-1-33-4-30-7-30-11-29-14-21-13-18-14-11-9-15-14-11-11-7-8-10-12-13-18-9-15-9-16-8-17-9-25-7-27-5-32-1-18v-24l2-29 5-30 6-22 9-25 8-18 10-18 9-14 13-18 10-11 7-8 6-7h2l2-4 8-7 7-7 14-11 16-12 17-11 16-8 24-11 30-10 23-5 22-3zm0 10-24 2-26 5-27 8-25 10-20 10-20 13-21 16-14 12-18 18-7 8-10 12-13 18-9 15-12 23-8 20-8 25-4 17-4 29-1 20v17l2 27 5 31 7 26 10 26 11 22 13 21 13 17 11 13 12 13 15 14 11 9 18 14 14 9 16 9 19 9 27 10 23 6 33 5 36 1 25-1 28-4 22-5 31-11 24-11 22-13 19-14 10-8 13-12 6-5v-2l4-2 7-8 12-13 10-14 9-13 13-22 11-24 9-27 6-26 4-30v-50l-3-24-5-24-7-24-9-22-8-17-12-20-10-14-11-14-9-10-7-8-13-13-8-7-18-14-16-11-15-9-15-8-25-10-19-6-26-6-20-3-17-1z" fill="#040404"/>
<path transform="translate(992,869)" d="m0 0h93l-3 9-3 5-55 1 1 5 5 13 2 23h42v3l-6 10-1 1-39 1-3 3-6 10-8 10-10 8-15 8-15 5-14 3-20 2 10 16 10 13 13 18 12 17 65 90 3 5-1 1h-28l-13-18-28-38-16-21-10-14-16-21-11-15-12-17-1-3v-21l2-1 20-2 19-5 16-6 15-9 10-10 3-7v-2h-106l2-5 5-8 104-1v-10l-3-11-5-8-5-5-10-6-3-1-74-1 6-11 2-2z" fill="#FEFEFE"/>
<path transform="translate(909,864)" d="m0 0h186l-1 5-11 19-6 2h-44l3 13 1 16h46v5l-10 18-2 2-5 1h-37l-2 6-6 9-6 7-12 9-16 8-13 5-26 5 2 4 12 17 14 19 10 14 52 72 12 17 7 10 2 3v4l-6 1h-34l-6-7-13-18-10-13-42-57-12-16-14-19-13-18-1-2v-28l2-3 27-3 20-5 16-7 12-9 5-6-5 1h-97l-4-1 2-6 8-14 4-5h101l-3-11-5-8-7-6-7-3-78-1-3-2 1-6 10-16zm83 5-80 1-4 5-4 8 74 1 12 6 5 5 4 5 4 10 1 5v10l-104 1-7 11v2h106l-1 5-4 6-8 8-15 9-16 6-19 5-20 2-2 1v21l4 8 10 13 14 19 16 21 10 14 16 21 10 14 14 19 13 18h28l1-2-14-19-26-36-10-14-26-36-12-17-14-19-10-15-1-2 26-3 18-5 17-8 9-7 7-6 7-10 5-9 2-1 39-1 6-9 2-4-2-1h-41l-2-23-5-13-1-5 55-1 6-12-1-2z" fill="#040404"/>
<path transform="translate(991,800)" d="m0 0h19l20 2 23 5 18 6 20 9 13 7 13 9 10 8 12 11 13 13 15 20 12 22 8 18 6 20 4 19 2 15v35l-3 20-6 23-8 21-10 19-11 16-9 11-14 15-8 7-13 11-14 9-21 11-24 9-24 6-15 2h-39l-20-3-23-6-24-10-19-10-14-10-15-13-18-18-13-17-12-20-9-20-6-19-4-17-3-23v-27l2-18 4-19 8-24 9-19 11-18 9-12 9-10 7-8h2v-2l8-7 13-11 17-11 15-8 20-8 19-6 24-4zm-10 6-24 4-27 8-18 8-16 9-14 10-11 9-15 15-9 11-10 13-9 15-9 19-7 21-4 19-2 18v25l3 26 4 17 5 15 8 18 8 15 11 16 9 11 5 6 8 7 7 7 10 8 10 7 10 6 25 12 21 7 18 4 16 2h30l22-3 22-6 20-8 16-8 16-9 13-11 8-7 10-9 12-14 11-16 9-16 8-17 6-18 5-25 2-19v-15l-3-27-6-25-7-19-8-16-8-14-11-14-10-11-7-8-11-10-18-13-19-11-20-8-23-7-15-3-9-1z" fill="#040404"/>
<path transform="translate(980,818)" d="m0 0h39l28 5 19 6 20 9 18 11 11 9 12 11 10 10 11 14 9 14 10 19 8 22 5 22 2 15v34l-4 22-6 20-6 15-10 19-10 14-9 11-11 12-8 7-15 12-15 9-16 8-19 7-22 5-14 2h-34l-26-4-23-7-16-7-17-10-12-9-13-11-13-13-11-14-10-15-8-16-6-14-6-20-3-14-2-20v-21l2-19 5-20 8-22 10-19 10-15 8-10 12-13 13-12 15-11 17-10 16-7 19-6 20-4zm4 5-24 4-21 6-19 8-16 9-14 10-12 11-13 13-12 16-9 15-9 19-7 21-4 22-1 12v20l2 18 4 19 5 16 6 15 9 16 7 10 11 14 12 12 10 9 14 10 15 9 16 8 18 6 26 5 9 1h26l25-4 19-5 19-8 14-8 15-10 9-7 12-11 11-12 11-15 9-15 8-18 7-22 4-24v-33l-3-20-5-20-8-20-10-19-12-17-11-12-15-15-15-11-16-9-20-9-21-6-24-4z" fill="#040404"/>
<path transform="translate(993,1304)" d="m0 0h10l5 3 3 4 1 8-4 7-7 6 2 5 8 9 3-1 2-8 4-1 2 1-1 9-3 8 6 7-1 3-7-1-4-3-5 3-12 2-9-3-5-4-3-7 1-9 7-8 2-3-4-8-1-9 4-7z" fill="#040404"/>
<path transform="translate(1105,661)" d="m0 0h11l19 8v2l-6 2-4 9-5 4h-10l-6-1 1 3 11 4 6 7v6l-4 6-4 2h-10l-10-3-6-4-2-4 1-8 5-3h3v-6l3-4v-12l3-5z" fill="#040404"/>
<path transform="translate(1065,1297)" d="m0 0h6l7 10 10 16 10 15 6 11-1 2-7-1-7-11-3-1-19 4-2 1-3 16-7 1-1-3 9-58z" fill="#040404"/>
<path transform="translate(1017,629)" d="m0 0h9l1 1v15l-1 34h-8v-2l-5 1-7 2-7-2-5-6-2-8 1-11 3-6 5-4 7-1 8 3z" fill="#040404"/>
<path transform="translate(935,1296)" d="m0 0h3l3 9 7 49v6l-7-1-2-14-1-2-20-4-5 1-5 9-2 2h-6l-1-2 12-20 16-24 6-8z" fill="#040404"/>
<path transform="translate(815,680)" d="m0 0 4 1 7 14 4-7 8-4h6l7 6 11 20v2l-7 4-3-1-9-17-3-4-6 1-3 5 5 12 5 9v3l-7 4-3-3-12-22-10-17v-2z" fill="#040404"/>
<path transform="translate(775,729)" d="m0 0 8 1 8 6-1 5-8 8-5 4v3l5 1 6-3 7-8 4 2 1 4-9 10-8 4h-8l-8-5-4-5-3-7 1-8 4-7 7-4z" fill="#040404"/>
<path transform="translate(924,651)" d="m0 0h10l5 3 5 8v6l-8 3-13 2 2 6h10l7-3h3v7l-5 3-8 2h-9l-6-4-4-6-2-7 1-10 4-6 4-3z" fill="#040404"/>
<path transform="translate(1300,822)" d="m0 0 8 1 7 6 3 7v9l-6 7-5 3-4-2-8-16h-4l-1 2 1 9 6 8-1 3-4 1-6-5-5-10v-9l5-8 9-5z" fill="#040404"/>
<path transform="translate(1190,703)" d="m0 0h9l8 4 4 6 1 9-4 8-3 2-17-11-3-1 1 8 5 5 9 4-2 4-2 2-5-1-10-7-4-5-1-3v-9l5-9 6-5z" fill="#040404"/>
<path transform="translate(1164,673)" d="m0 0h7l8 3 6 5 2 5-3 3-5-1-8-5h-6l3 9 6 11 1 7-5 8-3 2h-9l-8-3-6-4v-2l-3-1 3-9 4 2 1 3 4 2 5 3 5-1v-7l-7-11-1-9 3-6z" fill="#040404"/>
<path transform="translate(1062,647)" d="m0 0 5 2 2 3 4-1h9l7 4 2 4v9l-5 21h-6l-4-4 4-20v-5l-8-1-3 2-4 15-2 8h-7l-3-3 7-33z" fill="#040404"/>
<path transform="translate(971,644)" d="m0 0 8 2 4 5 1 2 3 26-9 2-2-4-3-21-1-4-7 2-3 1v17l1 10-10 1-2-16-1-10v-10l4-1 3 3 5-2z" fill="#040404"/>
<path transform="translate(725,781)" d="m0 0h8l11 7 12 9-2 4-2 3-5-1-15-10-6-2-4 5 2 6 8 7 10 7-2 5-1 2h-5l-11-8-12-9-3-3 2-4 5-1 2-9 6-7z" fill="#040404"/>
<path transform="translate(681,827)" d="m0 0 5 1 2 4-5 11 1 4 5 2h4l6-12 6 2 1 4-5 9v3l15 7-3 9-6-2-34-16-3-2 2-6 8-17z" fill="#040404"/>
<path transform="translate(1244,739)" d="m0 0 5 3 2 3-1 7-9 16 6-2 13-6h6l4 4v3l-26 11-8 3-7-6 1-5 11-24 2-2z" fill="#040404"/>
<path transform="translate(1318,856)" d="m0 0 7 1 6 7 3 12-1 3h-6l-1-1-2-11h-4l-1 13-3 6-4 3h-7l-5-3-5-10-2-8 4-4 4 1 2 11 4 4 2-3 2-16 4-4z" fill="#040404"/>
<path transform="translate(876,654)" d="m0 0 4 1 12 34 2 1 13-5 3-1 2 4-1 5-22 8-5-1-10-29-4-12 1-3z" fill="#040404"/>
<path transform="translate(1282,793)" d="m0 0 9 1 7 6 4 9v3l-6 2-5-8-1-2h-7l-7 4h-2l-1 8 3 5 4 3-2 4-4 1-6-5-5-10 1-8 4-6 7-5z" fill="#040404"/>
<path transform="translate(748,753)" d="m0 0h3l2 5-4 5 1 4 11 9h5l3-4 4 1 2 3-4 6-5 5-5 1-9-6-10-9-3-1-1 3-3-1-1-10-1-2v-6l4-1 5 4z" fill="#040404"/>
<path transform="translate(804,705)" d="m0 0 5 1 2 4-10 7-1 4 3 7 5 5 4 1 5-3h2l2-6 4 2 1 6-4 5-9 5h-9l-6-4-6-8-2-7 1-8 7-8z" fill="#040404"/>
<path transform="translate(1225,722)" d="m0 0 5 3-1 7 3-1 9 3 3 5-5 2h-4l-2-1h-9l-7 7-6 8-4-1-5-4 2-4 13-15 7-8z" fill="#040404"/>
<path transform="translate(1274,772)" d="m0 0h3l4 7-5 5-18 14-3 3-4-2-1-3h-2l1-4 16-13z" fill="#040404"/>
<path transform="translate(1039,646)" d="m0 0h7l3 1-2 20-2 15h-8l-1-1v-11z" fill="#040404"/>
<path transform="translate(701,814)" d="m0 0 10 5 19 11 2 4-5 6-11-6-19-11 1-4z" fill="#040404"/>
<path transform="translate(993,1337)" d="m0 0 4 2 8 10 3 5-5 4-9 1-6-3-2-4v-8l5-6z" fill="#FEFEFE"/>
<path transform="translate(934,1307)" d="m0 0h1l3 22v7l-8-1-10-2-1-3 12-19z" fill="#FEFEFE"/>
<path transform="translate(1069,1307)" d="m0 0 4 4 11 18-1 3-15 4-3-1 3-27z" fill="#FEFEFE"/>
<path transform="translate(1007,650)" d="m0 0 7 1 3 4v12l-1 3-3 2-7-1-3-3-1-10 2-6z" fill="#FEFEFE"/>
<path transform="translate(994,1310)" d="m0 0h7l4 4-1 7-5 5-4 1-4-4-1-8 2-4z" fill="#FEFEFE"/>
<path transform="translate(1096,696)" d="m0 0h7l9 4 1 4-5 3-10-2-4-4z" fill="#FEFEFE"/>
<path transform="translate(1110,667)" d="m0 0 7 1 2 2-1 6-3 4h-5l-3-3 1-8z" fill="#FEFEFE"/>
<path transform="translate(774,736)" d="m0 0 5 2 1 4-7 6h-4l-1-6 4-5z" fill="#FEFEFE"/>
<path transform="translate(1195,710)" d="m0 0 6 1 3 4v5l-4 1-9-6 2-4z" fill="#FEFEFE"/>
<path transform="translate(1302,831)" d="m0 0h5l3 3 1 6-3 4-4-2-4-9z" fill="#FEFEFE"/>
<path transform="translate(925,658)" d="m0 0h6l2 2v4l-9 3-4-2 2-5z" fill="#FEFEFE"/>
<path transform="translate(1041,632)" d="m0 0 9 1 1 3-2 5-9-1v-7z" fill="#040404"/>
<path transform="translate(1283,764)" d="m0 0h5l3 3-1 5-3 3-4-2-2-2 1-5z" fill="#040404"/>
<path transform="translate(688,808)" d="m0 0 6 1 2 3-3 6-3 1-5-5z" fill="#040404"/>
</svg>
