<svg version="1.1" id="Layer_1" xmlns="http://www.w3.org/2000/svg" xmlns:xlink="http://www.w3.org/1999/xlink" x="0px" y="0px"
	 width="100%" viewBox="0 0 500 500" enable-background="new 0 0 500 500" xml:space="preserve">
<path fill="none" opacity="1.000000" stroke="#000000" stroke-linecap="round" stroke-linejoin="round" stroke-width="9.000000"
	d="
M400.000000,277.000000 
	C400.000000,287.833344 400.006256,298.666656 399.996979,309.500000 
	C399.993134,313.978943 397.022614,316.978912 392.499969,316.991028 
	C382.000061,317.019165 371.500000,317.000000 361.000000,317.000000 
	C277.833344,317.000000 194.666672,317.000000 111.500000,317.000000 
	C104.476738,317.000000 103.000000,315.523254 103.000000,308.500000 
	C103.000000,301.666656 103.000000,294.833344 103.000000,288.000000 
"/>
<path fill="none" opacity="1.000000" stroke="#000000" stroke-linecap="round" stroke-linejoin="round" stroke-width="9.000000"
	d="
M398.500031,203.500000 
	C398.666687,198.500000 398.928558,193.500854 398.973724,188.499756 
	C399.020569,183.314255 396.646423,181.004288 391.500000,181.003983 
	C297.833344,180.998535 204.166672,180.999054 110.500000,181.002838 
	C105.971161,181.003006 103.515755,183.439896 103.507332,188.000015 
	C103.485466,199.833298 103.500000,211.666672 103.500000,223.500000 
"/>
<path fill="none" opacity="1.000000" stroke="#000000" stroke-linecap="round" stroke-linejoin="round" stroke-width="4.000000"
	d="
M463.500000,244.000000 
	C463.333344,244.000000 463.071564,244.069504 463.013550,243.990097 
	C457.495789,236.441238 449.359711,239.335022 442.525757,239.845001 
	C436.467285,240.297150 438.220795,246.701050 438.031464,251.001389 
	C437.877228,254.504593 437.807098,258.476410 442.509033,258.899841 
	C447.468781,259.346558 452.519745,259.271667 457.493469,258.910309 
	C461.184998,258.642090 462.155396,256.282104 461.489532,250.915726 
	C458.206421,250.038483 454.831299,250.707138 451.500000,250.500000 
"/>
<path fill="none" opacity="1.000000" stroke="#000000" stroke-linecap="round" stroke-linejoin="round" stroke-width="4.000000"
	d="
M197.500000,243.500000 
	C196.194763,240.367508 193.737671,239.363510 190.499054,239.471771 
	C186.836472,239.594208 183.166412,239.472473 179.500076,239.507492 
	C175.570465,239.545029 173.552490,241.570480 173.503372,245.500046 
	C173.348419,257.901428 172.374969,259.467682 186.499390,258.982178 
	C190.460739,258.846039 194.981598,260.275513 197.500000,255.500000 
"/>
<path fill="none" opacity="1.000000" stroke="#000000" stroke-linecap="round" stroke-linejoin="round" stroke-width="5.000000"
	d="
M269.000000,240.000000 
	C269.000000,246.171158 269.000000,252.342331 269.000000,259.000000 
	C274.989929,259.000000 280.494965,259.000000 286.000000,259.000000 
"/>
<path fill="none" opacity="1.000000" stroke="#000000" stroke-linecap="round" stroke-linejoin="round" stroke-width="4.000000"
	d="
M63.500000,239.500000 
	C56.079613,239.500000 48.659222,239.500000 41.000000,239.500000 
	C41.000000,246.331146 41.000000,252.665573 41.000000,259.000000 
"/>
<path fill="none" opacity="1.000000" stroke="#000000" stroke-linecap="round" stroke-linejoin="round" stroke-width="5.000000"
	d="
M165.500000,239.500000 
	C158.079605,239.500000 150.659225,239.500000 143.250000,239.500000 
	C143.250000,246.171158 143.250000,252.338943 143.250000,259.000000 
	C150.658920,259.000000 157.829453,259.000000 165.000000,259.000000 
"/>
<path fill="none" opacity="1.000000" stroke="#000000" stroke-linecap="round" stroke-linejoin="round" stroke-width="4.000000"
	d="
M317.500000,239.500000 
	C311.166656,239.500000 304.828766,239.645691 298.501678,239.446594 
	C294.561768,239.322601 294.449829,241.610382 294.459198,244.500137 
	C294.468536,247.374313 294.557098,249.704590 298.501984,249.551361 
	C303.827301,249.344528 309.166656,249.500000 314.500000,249.500000 
"/>
<path fill="none" opacity="1.000000" stroke="#000000" stroke-linecap="round" stroke-linejoin="round" stroke-width="5.000000"
	d="
M295.000000,249.500000 
	C294.098633,252.583328 294.352173,255.666672 294.977356,258.842255 
	C302.483307,259.501190 310.032013,258.289307 317.500000,259.500000 
"/>
<path fill="none" opacity="1.000000" stroke="#000000" stroke-linecap="round" stroke-linejoin="round" stroke-width="4.000000"
	d="
M428.500000,259.500000 
	C421.736725,253.171066 414.419495,247.509293 406.911682,242.123108 
	C405.795593,241.322403 405.435028,240.231644 404.500000,239.500000 
"/>
<path fill="none" opacity="1.000000" stroke="#000000" stroke-linecap="round" stroke-linejoin="round" stroke-width="4.000000"
	d="
M350.500000,259.500000 
	C343.736725,253.171066 336.419495,247.509293 328.911682,242.123093 
	C327.795593,241.322403 327.435028,240.231644 326.500000,239.500000 
"/>
<path fill="none" opacity="1.000000" stroke="#000000" stroke-linecap="round" stroke-linejoin="round" stroke-width="4.000000"
	d="
M107.000000,260.500000 
	C102.904663,254.418472 96.122581,251.396164 91.040848,246.457962 
	C88.379997,243.872314 84.656883,242.654739 82.500000,239.500000 
"/>
<path fill="none" opacity="1.000000" stroke="#000000" stroke-linecap="round" stroke-linejoin="round" stroke-width="4.000000"
	d="
M229.000000,249.000000 
	C222.022583,250.115219 214.996948,249.205048 208.000000,249.500000 
"/>
<path fill="none" opacity="1.000000" stroke="#000000" stroke-linecap="round" stroke-linejoin="round" stroke-width="4.000000"
	d="
M72.500000,239.500000 
	C72.500000,246.166672 72.500000,252.833328 72.500000,259.500000 
"/>
<path fill="none" opacity="1.000000" stroke="#000000" stroke-linecap="round" stroke-linejoin="round" stroke-width="5.000000"
	d="
M394.000000,240.000000 
	C394.000000,246.333328 394.000000,252.666672 394.000000,259.000000 
"/>
<path fill="none" opacity="1.000000" stroke="#000000" stroke-linecap="round" stroke-linejoin="round" stroke-width="4.000000"
	d="
M60.500000,249.500000 
	C54.333332,249.500000 48.166668,249.500000 42.000000,249.500000 
"/>
<path fill="none" opacity="1.000000" stroke="#000000" stroke-linecap="round" stroke-linejoin="round" stroke-width="4.000000"
	d="
M162.500000,249.500000 
	C156.333328,249.500000 150.166672,249.500000 144.000000,249.500000 
"/>
<path fill="none" opacity="1.000000" stroke="#000000" stroke-linecap="round" stroke-linejoin="round" stroke-width="4.000000"
	d="
M125.000000,241.000000 
	C123.895355,247.141312 124.797180,253.336853 124.500000,259.500000 
"/>
<path fill="none" opacity="1.000000" stroke="#000000" stroke-linecap="round" stroke-linejoin="round" stroke-width="4.000000"
	d="
M350.500000,239.500000 
	C349.980591,245.489670 351.612366,251.598831 349.500000,257.500000 
"/>
<path fill="none" opacity="1.000000" stroke="#000000" stroke-linecap="round" stroke-linejoin="round" stroke-width="4.000000"
	d="
M428.500000,239.500000 
	C427.980591,245.489670 429.612366,251.598831 427.500000,257.500000 
"/>
<path fill="none" opacity="1.000000" stroke="#000000" stroke-linecap="round" stroke-linejoin="round" stroke-width="4.000000"
	d="
M106.500000,239.500000 
	C105.980591,245.489670 107.612358,251.598831 105.500000,257.500000 
"/>
<path fill="none" opacity="1.000000" stroke="#000000" stroke-linecap="round" stroke-linejoin="round" stroke-width="4.000000"
	d="
M83.500000,242.000000 
	C81.377754,247.731110 83.039856,253.678467 82.500000,259.500000 
"/>
<path fill="none" opacity="1.000000" stroke="#000000" stroke-linecap="round" stroke-linejoin="round" stroke-width="4.000000"
	d="
M327.500000,242.000000 
	C325.377747,247.731110 327.039856,253.678467 326.500000,259.500000 
"/>
<path fill="none" opacity="1.000000" stroke="#000000" stroke-linecap="round" stroke-linejoin="round" stroke-width="4.000000"
	d="
M405.500000,242.000000 
	C403.377747,247.731110 405.039856,253.678467 404.500000,259.500000 
"/>
<path fill="none" opacity="1.000000" stroke="#000000" stroke-linecap="round" stroke-linejoin="round" stroke-width="4.000000"
	d="
M135.500000,239.500000 
	C128.166672,239.500000 120.833336,239.500000 113.500000,239.500000 
"/>
<path fill="none" opacity="1.000000" stroke="#000000" stroke-linecap="round" stroke-linejoin="round" stroke-width="4.000000"
	d="
M230.500000,239.500000 
	C230.500000,246.166672 230.500000,252.833328 230.500000,259.500000 
"/>
<path fill="none" opacity="1.000000" stroke="#000000" stroke-linecap="round" stroke-linejoin="round" stroke-width="5.000000"
	d="
M207.000000,240.000000 
	C207.000000,246.333328 207.000000,252.666672 207.000000,259.000000 
"/>
<path fill="none" opacity="1.000000" stroke="#000000" stroke-linecap="round" stroke-linejoin="round" stroke-width="4.000000"
	d="
M254.500000,249.000000 
	C251.883636,249.971588 249.164642,249.301010 246.500000,249.500000 
"/>
<path fill="none" opacity="1.000000" stroke="#000000" stroke-linecap="round" stroke-linejoin="round" stroke-width="4.000000"
	d="
M363.000000,239.500000 
	C361.287781,239.767593 360.474731,240.724731 360.486725,242.500092 
	C360.523315,247.921600 360.500000,253.343491 360.500000,259.000000 
	C366.830994,259.000000 372.668518,259.115082 378.499023,258.962402 
	C382.897675,258.847229 384.467377,257.234467 384.478760,252.999939 
	C384.512634,240.409836 386.168945,238.998199 371.499573,239.487335 
	C368.835876,239.576157 366.166656,239.500000 363.500000,239.500000 
"/>
</svg>